<?xml version="1.0" encoding="utf-8"?>
<svg viewBox="7.248 120.564 490 69.087" xmlns="http://www.w3.org/2000/svg">
  <path class="st0" d="M 56.443 175.62 L 24.919 175.62 L 20.035 188.407 L 7.248 188.407 L 33.355 121.63 L 43.656 121.63 C 46.231 121.63 48.629 123.228 49.517 125.626 L 74.026 188.407 L 61.239 188.407 L 56.443 175.62 Z M 28.205 165.319 L 53.158 165.319 L 40.726 131.575 L 28.205 165.319 Z M 124.464 163.543 L 112.92 163.543 L 112.92 188.496 L 101.288 188.496 L 101.288 121.718 L 130.503 121.718 C 143.645 121.718 152.259 130.332 152.259 142.675 C 152.259 154.575 144.444 160.968 136.541 162.3 L 152.792 188.496 L 139.205 188.496 L 124.464 163.543 Z M 128.904 132.019 L 112.92 132.019 L 112.92 153.243 L 128.904 153.243 C 135.476 153.243 140.271 149.069 140.271 142.586 C 140.271 136.104 135.476 132.019 128.904 132.019 Z M 196.659 132.019 L 176.59 132.019 L 176.59 128.112 C 176.59 124.649 179.432 121.718 182.895 121.718 L 228.45 121.718 L 228.45 132.019 L 208.381 132.019 L 208.381 188.496 L 196.659 188.496 L 196.659 132.019 Z M 255.356 121.63 L 260.684 121.63 C 264.147 121.63 266.989 124.471 266.989 128.023 L 266.989 188.407 L 255.356 188.407 L 255.356 121.63 Z M 294.162 155.107 C 294.162 134.594 309.435 120.564 328.527 120.564 C 342.469 120.564 350.728 127.579 355.7 135.571 L 345.755 140.633 C 342.114 134.594 335.543 130.865 328.527 130.954 C 315.829 130.954 306.061 141.077 306.061 155.107 C 306.061 169.138 315.829 179.261 328.527 179.261 C 335.632 179.35 342.203 175.62 345.755 169.582 L 355.7 174.643 C 350.639 182.635 342.469 189.651 328.527 189.651 C 309.435 189.651 294.162 175.62 294.162 155.107 Z M 389.444 121.63 L 394.773 121.63 L 394.773 178.107 L 424.077 178.107 L 424.077 188.407 L 383.14 188.407 L 383.14 128.023 C 383.051 124.56 385.892 121.718 389.444 121.63 C 389.444 121.63 389.444 121.63 389.444 121.63 Z M 457.998 121.63 L 497.248 121.63 L 497.248 131.93 L 463.326 131.93 L 463.326 149.247 L 496.538 149.247 L 496.538 159.636 L 463.326 159.636 L 463.326 178.107 L 497.248 178.107 L 497.248 188.407 L 451.693 188.407 L 451.693 128.023 C 451.605 124.56 454.446 121.718 457.998 121.63 C 457.91 121.63 457.91 121.63 457.998 121.63 Z" style="fill: rgb(255, 255, 255);"/>
</svg>